<svg width="256" height="256" viewBox="0 0 64 64" fill="none" xmlns="http://www.w3.org/2000/svg" role="img" aria-label="Folklore">
  <!-- Spoken flame: a speech bubble (voice / lore) cradling a hearth flame -->
  <path d="M12 12h40a4 4 0 0 1 4 4v26a4 4 0 0 1-4 4H30l-12 10v-10h-6a4 4 0 0 1-4-4V16a4 4 0 0 1 4-4z" fill="none" stroke="#1d1813" stroke-width="3" stroke-linejoin="round"/>
  <path d="M32 17c2 6-4 8-4 13a4 4 0 0 0 8 0c0-2-1-3-1-3 3 2 5 5 5 9a8 8 0 1 1-16 0c0-7 6-9 8-19z" fill="#ff4f6d" stroke="#1d1813" stroke-width="2" stroke-linejoin="round"/>
  <path d="M32 31c1 3-2 4-2 7a2 2 0 0 0 4 0c0-2-1-2-1-3 2 5-1 6-1 6" fill="#f5b921"/>
</svg>
