<svg xmlns="http://www.w3.org/2000/svg" viewBox="0 0 64 64" aria-label="Folklore">
  <rect width="64" height="64" rx="14" fill="#1d1813"/>
  <path d="M32 12.5 C34.2 18 39.6 22.6 40.9 29 C41.9 34.4 40.6 40.6 36.6 45.4 Q32 49.2 27.4 45.4 C23.4 40.6 22.1 34.4 23.1 29 C24.1 23.6 29.6 20.4 30.6 16.6 C31.1 15 31.6 13.8 32 12.5 Z" fill="#ff4f6d"/>
  <g stroke="#f4ecd8" stroke-width="3.2" stroke-linecap="round">
    <path d="M20 52 L44 47"/><path d="M20 47 L44 52"/>
  </g>
  <g fill="#f4ecd8">
    <circle cx="12" cy="38" r="4.5"/><path d="M4 53c0-5 3.5-8 8-8s8 3 8 8z"/>
    <circle cx="52" cy="38" r="4.5"/><path d="M44 53c0-5 3.5-8 8-8s8 3 8 8z"/>
  </g>
</svg>
