<svg xmlns="http://www.w3.org/2000/svg" viewBox="0 0 64 64" fill="none" aria-label="Folklore">
  <!-- On-dark full mark: the flame and the two tellers around it. Same drawing
       as folklore-navbar.svg, but the figures and crossed arrows are paper
       (#f4ecd8) instead of ink so they read on the island surface, and the
       flame's dark outline is dropped (it only existed to separate the flame
       from the paper site background). Pairs with folklore-spark.svg, which is
       the flame alone for sizes too small to show the figures. -->
  <path d="M32 12.5 C34.2 18 39.6 22.6 40.9 29 C41.9 34.4 40.6 40.6 36.6 45.4 Q32 49.2 27.4 45.4 C23.4 40.6 22.1 34.4 23.1 29 C24.1 23.6 29.6 20.4 30.6 16.6 C31.1 15 31.6 13.8 32 12.5 Z" fill="#ff4f6d"/>
  <path d="M32 30 C33 32.6 35.6 34.9 36.2 38 C36.7 40.6 36 43.5 34.2 45.2 Q32 46.7 29.8 45.2 C28 43.5 27.3 40.6 27.8 38 C28.3 35 30.9 32.7 31.4 31.3 C31.6 30.8 31.8 30.4 32 30 Z" fill="#f5b921"/>
  <g stroke="#f4ecd8" stroke-width="3.2" stroke-linecap="round">
    <path d="M20 52 L44 47"/><path d="M20 47 L44 52"/>
  </g>
  <g fill="#f4ecd8">
    <circle cx="12" cy="38" r="4"/><path d="M5 52c0-4.5 3-7.5 7-7.5s7 3 7 7.5z"/>
    <circle cx="52" cy="38" r="4"/><path d="M45 52c0-4.5 3-7.5 7-7.5s7 3 7 7.5z"/>
  </g>
</svg>
