<svg xmlns="http://www.w3.org/2000/svg" viewBox="0 0 64 64" aria-label="Folklore">
  <!-- The canonical folklore mark — extracted verbatim from the hero section's
       .sh-hearth in site/index.html. Single source of truth for the favicon,
       social image, navbar, app icon and installer. Static (no flame animation). -->
  <defs>
    <radialGradient id="hgCard" cx=".5" cy=".72" r=".95">
      <stop offset="0" stop-color="#33291e"/><stop offset=".55" stop-color="#191410"/><stop offset="1" stop-color="#0a0805"/>
    </radialGradient>
    <radialGradient id="hgGlow" cx=".5" cy=".5" r=".5">
      <stop offset="0" stop-color="#f5b921" stop-opacity=".45"/>
      <stop offset=".55" stop-color="#ff6b47" stop-opacity=".18"/>
      <stop offset=".8" stop-color="#ff4f6d" stop-opacity="0"/>
    </radialGradient>
    <linearGradient id="hgFlame" x1="0" y1="0" x2="0" y2="1">
      <stop offset="0" stop-color="#ff4f6d"/><stop offset=".75" stop-color="#ff5a3d"/><stop offset="1" stop-color="#e8452f"/>
    </linearGradient>
  </defs>
  <rect width="64" height="64" rx="14" fill="url(#hgCard)"/>
  <rect x=".8" y=".8" width="62.4" height="62.4" rx="13.4" fill="none" stroke="rgba(244,236,216,.1)" stroke-width="1.2"/>
  <ellipse cx="32" cy="44" rx="24" ry="18" fill="url(#hgGlow)"/>
  <g>
    <circle cx="17.3" cy="41" r="4" fill="#f5b921" opacity=".85"/>
    <circle cx="16" cy="41" r="4" fill="#463526"/>
    <path d="M9.5 52c0-4.6 3-7.5 6.5-7.5s6.5 2.9 6.5 7.5Z" fill="#463526"/>
    <circle cx="46.7" cy="41" r="4" fill="#f5b921" opacity=".85"/>
    <circle cx="48" cy="41" r="4" fill="#463526"/>
    <path d="M41.5 52c0-4.6 3-7.5 6.5-7.5s6.5 2.9 6.5 7.5Z" fill="#463526"/>
  </g>
  <g>
    <path d="M32 12.5 C34.2 18 39.6 22.6 40.9 29 C41.9 34.4 40.6 40.6 36.6 45.4 Q32 49.2 27.4 45.4 C23.4 40.6 22.1 34.4 23.1 29 C24.1 23.6 29.6 20.4 30.6 16.6 C31.1 15 31.6 13.8 32 12.5 Z" fill="url(#hgFlame)"/>
    <path d="M32 22.6 C33.5 26.4 37.3 29.6 38.2 34.1 C38.9 37.9 38 42.2 35.2 44.7 Q32 47 28.8 44.7 C26 42.2 25.1 37.9 25.8 34.1 C26.5 29.8 30.4 26.6 31 24.2 C31.4 23.5 31.7 23 32 22.6 Z" fill="#ff7a3d"/>
    <circle cx="34.5" cy="11" r="1.2" fill="#f5b921" opacity=".85"/>
    <circle cx="37" cy="6.5" r=".7" fill="#ff7a3d" opacity=".8"/>
  </g>
  <g>
    <path d="M32 30 C33 32.6 35.6 34.9 36.2 38 C36.7 40.6 36 43.5 34.2 45.2 Q32 46.7 29.8 45.2 C28 43.5 27.3 40.6 27.8 38 C28.3 35 30.9 32.7 31.4 31.3 C31.6 30.8 31.8 30.4 32 30 Z" fill="#f5b921"/>
    <ellipse cx="32" cy="43.5" rx="1.9" ry="2.6" fill="#ffe9b0" opacity=".95"/>
  </g>
  <g stroke="#2a1f14" stroke-width="4.5" stroke-linecap="butt">
    <path d="M21 56 43 47.5"/><path d="M21 47.5 43 56"/>
  </g>
  <path d="M25.6 52.7 31.6 50.2" stroke="#f5b921" stroke-width="1.1" stroke-linecap="round" opacity=".55" fill="none"/>
  <path d="M38.4 50.4 32.6 52.8" stroke="#f5b921" stroke-width="1.1" stroke-linecap="round" opacity=".55" fill="none"/>
</svg>
