<svg xmlns="http://www.w3.org/2000/svg" viewBox="0 0 720 430" font-family="Helvetica, Arial, sans-serif">
  <rect width="720" height="430" fill="#ffffff"/>
  <!-- axes -->
  <line x1="80" y1="40" x2="80" y2="360" stroke="#333" stroke-width="1"/>
  <line x1="80" y1="360" x2="680" y2="360" stroke="#333" stroke-width="1"/>
  <!-- y gridlines + ticks -->
  <g stroke="#e7e7e7" stroke-width="1">
    <line x1="80" y1="271.1" x2="680" y2="271.1"/>
    <line x1="80" y1="182.2" x2="680" y2="182.2"/>
    <line x1="80" y1="93.3"  x2="680" y2="93.3"/>
  </g>
  <g fill="#444" font-size="11" text-anchor="end">
    <text x="72" y="364">0%</text>
    <text x="72" y="275">5%</text>
    <text x="72" y="186">10%</text>
    <text x="72" y="97">15%</text>
  </g>
  <!-- x ticks -->
  <g fill="#444" font-size="11" text-anchor="middle">
    <text x="80"  y="378">0</text>
    <text x="230" y="378">500</text>
    <text x="380" y="378">1000</text>
    <text x="530" y="378">1500</text>
    <text x="680" y="378">2000</text>
  </g>
  <!-- decay curve -->
  <polyline fill="none" stroke="#8a6233" stroke-width="2.2"
    points="80,57.8 155,179.2 230,248.5 305,288.5 380,311.5 455,324.6 530,332.1 605,336.4 680,338.8"/>
  <!-- endpoints -->
  <circle cx="80"  cy="57.8"  r="4" fill="#a8401a"/>
  <circle cx="680" cy="338.8" r="4" fill="#8a6233"/>
  <text x="92"  y="54"  fill="#a8401a" font-size="12" font-weight="bold">17%</text>
  <text x="668" y="330" fill="#8a6233" font-size="12" font-weight="bold" text-anchor="end">1%</text>
  <!-- axis labels -->
  <text x="380" y="404" fill="#222" font-size="12" text-anchor="middle">simulation step (t)</text>
  <text x="26" y="200" fill="#222" font-size="12" text-anchor="middle" transform="rotate(-90 26 200)">web-fallback rate</text>
</svg>
