<svg xmlns="http://www.w3.org/2000/svg" viewBox="0 0 720 430" font-family="Helvetica, Arial, sans-serif">
  <rect width="720" height="430" fill="#ffffff"/>
  <!-- axes -->
  <line x1="80" y1="40" x2="80" y2="360" stroke="#333" stroke-width="1"/>
  <line x1="80" y1="360" x2="680" y2="360" stroke="#333" stroke-width="1"/>
  <!-- y gridlines + ticks (0..0.8) -->
  <g stroke="#e7e7e7" stroke-width="1">
    <line x1="80" y1="285" x2="680" y2="285"/>
    <line x1="80" y1="210" x2="680" y2="210"/>
    <line x1="80" y1="135" x2="680" y2="135"/>
    <line x1="80" y1="60"  x2="680" y2="60"/>
  </g>
  <g fill="#444" font-size="11" text-anchor="end">
    <text x="72" y="364">0.0</text>
    <text x="72" y="289">0.2</text>
    <text x="72" y="214">0.4</text>
    <text x="72" y="139">0.6</text>
    <text x="72" y="64">0.8</text>
  </g>
  <!-- bars -->
  <rect x="105" y="77.9"  width="70" height="282.1" fill="#8a6233"/>
  <rect x="225" y="141"   width="70" height="219"   fill="#b9b1a1"/>
  <rect x="345" y="194.6" width="70" height="165.4" fill="#b9b1a1"/>
  <rect x="465" y="241.9" width="70" height="118.1" fill="#b9b1a1"/>
  <rect x="585" y="259.5" width="70" height="100.5" fill="#b9b1a1"/>
  <!-- value labels -->
  <g font-size="12" text-anchor="middle">
    <text x="140" y="70"  fill="#8a6233" font-weight="bold">0.7522</text>
    <text x="260" y="133" fill="#555">0.5840</text>
    <text x="380" y="187" fill="#555">0.4410</text>
    <text x="500" y="234" fill="#555">0.3150</text>
    <text x="620" y="252" fill="#555">0.2680</text>
  </g>
  <!-- category labels -->
  <g font-size="11" fill="#222" text-anchor="middle">
    <text x="140" y="378" font-weight="bold">akashik</text>
    <text x="260" y="378">Pinecone</text>
    <text x="380" y="378">mem0</text>
    <text x="500" y="378">Letta</text>
    <text x="620" y="378">LangChain</text>
  </g>
  <!-- axis label -->
  <text x="26" y="200" fill="#222" font-size="12" text-anchor="middle" transform="rotate(-90 26 200)">NDCG@10 (BEIR SciFact)</text>
</svg>
