<svg xmlns="http://www.w3.org/2000/svg" viewBox="0 0 720 360" font-family="Helvetica, Arial, sans-serif">
  <rect width="720" height="360" fill="#ffffff"/>
  <g font-size="11.5" fill="#1a1a1a">
    <!-- arm rows -->
    <g>
      <rect x="20" y="28" width="430" height="44" rx="4" fill="#f4f4f4" stroke="#333"/>
      <text x="34" y="46" font-weight="bold">Arm 1 &#183; Anonymous (baseline)</text>
      <text x="34" y="63" font-size="10.5" fill="#555">retrieved text only, no provenance</text>
    </g>
    <g>
      <rect x="20" y="86" width="430" height="44" rx="4" fill="#f0f0f0" stroke="#111111"/>
      <text x="34" y="104" font-weight="bold">Arm 2 &#183; Attested, no instruction</text>
      <text x="34" y="121" font-size="10.5" fill="#444444">+ provenance metadata visible (handle, identity age, trust, URI)</text>
    </g>
    <g>
      <rect x="20" y="144" width="430" height="44" rx="4" fill="#f0f0f0" stroke="#111111"/>
      <text x="34" y="162" font-weight="bold">Arm 3 &#183; Attested, instructed</text>
      <text x="34" y="179" font-size="10.5" fill="#444444">+ system prompt instructs the model to weigh trust</text>
    </g>
    <g>
      <rect x="20" y="202" width="430" height="44" rx="4" fill="#f0f0f0" stroke="#555555"/>
      <text x="34" y="220" font-weight="bold">Arm 4 &#183; Reputation pre-filter</text>
      <text x="34" y="237" font-size="10.5" fill="#555555">low-trust records removed before retrieval (mechanical, no LLM reasoning)</text>
    </g>

    <!-- delta brackets on the right -->
    <g stroke="#111111" stroke-width="1.3" fill="none">
      <path d="M462,50 h12 v58 h-12"/>
      <path d="M462,108 h12 v58 h-12"/>
    </g>
    <g font-size="10.5" fill="#1a1a1a">
      <text x="482" y="83">(2 &#8722; 1): is provenance</text>
      <text x="482" y="97" fill="#555">intrinsically informative?</text>
      <text x="482" y="141">(3 &#8722; 2): value of</text>
      <text x="482" y="155" fill="#555">instructing the model</text>
      <text x="482" y="224">Arm 4: value of</text>
      <text x="482" y="238" fill="#555">mechanical gating</text>
    </g>

    <!-- metric + sweep -->
    <line x1="20" y1="272" x2="700" y2="272" stroke="#ddd" stroke-width="1"/>
    <text x="20" y="296" font-weight="bold">Primary metric:</text>
    <text x="135" y="296">attack success rate (&#8595; better), reported as a delta between arms</text>
    <text x="20" y="318">Attack budget:</text>
    <text x="135" y="318">injection rate swept 1% &#8594; 20%, attacker identities fresh vs aged-compromised</text>
    <text x="20" y="340">Corpus:</text>
    <text x="135" y="340" fill="#555">PoisonedRAG, with each poison injected as a fully signed federated record</text>
  </g>
</svg>
