<svg xmlns="http://www.w3.org/2000/svg" viewBox="0 0 64 64" role="img" aria-label="Folklore — gathered hearth">
  <defs>
    <linearGradient id="fkCard" x1="0" y1="0" x2="0" y2="1">
      <stop offset="0" stop-color="#2e261d"/><stop offset=".55" stop-color="#191410"/><stop offset="1" stop-color="#0a0805"/>
    </linearGradient>
    <radialGradient id="fkGlow" cx=".5" cy=".5" r=".5">
      <stop offset="0" stop-color="#f5b921" stop-opacity=".38"/>
      <stop offset=".55" stop-color="#ff6b47" stop-opacity=".15"/>
      <stop offset=".8" stop-color="#ff4f6d" stop-opacity="0"/>
    </radialGradient>
    <linearGradient id="fkFlame" x1="0" y1="0" x2="0" y2="1">
      <stop offset="0" stop-color="#ff4f6d"/><stop offset=".75" stop-color="#ff5a3d"/><stop offset="1" stop-color="#e8452f"/>
    </linearGradient>
    <linearGradient id="fkLog" x1="0" y1="0" x2="0" y2="1">
      <stop offset="0" stop-color="#cbbd9d"/><stop offset="1" stop-color="#8f7f5f"/>
    </linearGradient>
  </defs>
  <rect width="64" height="64" rx="14" fill="url(#fkCard)"/>
  <rect x=".8" y=".8" width="62.4" height="62.4" rx="13.4" fill="none" stroke="rgba(244,236,216,.1)" stroke-width="1.2"/>
  <ellipse cx="32" cy="39" rx="16" ry="13" fill="url(#fkGlow)"/>
  <ellipse cx="32" cy="54" rx="13" ry="3" fill="#f5b921" opacity=".11"/>
  <g>
    <path d="M32 13C34.2 19 40 24 41 31c.8 6.6-1.2 12-5.4 14.6Q32 47.3 28.4 45.6C24.3 43 22.4 38 23.2 33s5.8-8.2 7-12.2c.6-2.4 1.3-5.2 1.8-7.8Z" fill="url(#fkFlame)"/>
    <circle cx="34.5" cy="11" r="1.2" fill="#f5b921" opacity=".85"/>
    <circle cx="31.5" cy="7.5" r=".8" fill="#ff4f6d" opacity=".7"/>
    <circle cx="36.5" cy="5.5" r=".5" fill="#f4ecd8" opacity=".6"/>
  </g>
  <path d="M32 24c1.6 3.5 5.2 6.8 5.6 11.4.4 4.2-1.4 8-4.2 9.5Q32 45.6 30.6 44.9c-2.8-1.5-4.4-5.1-4-9.3.4-4.6 3.8-8 5.4-11.6Z" fill="#ff7a3d"/>
  <path d="M32 31c1 2.8 3.4 5.4 3.4 8.8 0 3.2-1.6 5-3.4 5.2-1.8-.2-3.4-2-3.4-5.2 0-3.4 2.4-6 3.4-8.8Z" fill="#f5b921"/>
  <ellipse cx="32" cy="41.5" rx="2" ry="2.8" fill="#ffe9b0" opacity=".95"/>
  <g stroke="url(#fkLog)" stroke-width="4.5" stroke-linecap="round">
    <path d="M22 55 42 48"/><path d="M22 48 42 55"/>
  </g>
  <g>
    <circle cx="16.5" cy="36" r="4" fill="#f5b921" opacity=".5"/>
    <circle cx="16" cy="36" r="4" fill="#2b2118"/>
    <path d="M10 52c0-4.6 3-7.5 6.5-7.5S23 47.4 23 52Z" fill="#f5b921" opacity=".5"/>
    <path d="M9.5 52c0-4.6 3-7.5 6.5-7.5s6.5 2.9 6.5 7.5Z" fill="#2b2118"/>
    <circle cx="47.5" cy="37" r="4" fill="#f5b921" opacity=".5"/>
    <circle cx="48" cy="37" r="4" fill="#2b2118"/>
    <path d="M41 52c0-4.6 3-7.5 6.5-7.5S54 47.4 54 52Z" fill="#f5b921" opacity=".5"/>
    <path d="M41.5 52c0-4.6 3-7.5 6.5-7.5s6.5 2.9 6.5 7.5Z" fill="#2b2118"/>
  </g>
</svg>
