<svg xmlns="http://www.w3.org/2000/svg" viewBox="0 0 360 64" width="360" height="64" role="img" aria-label="akashik">
  <title>akashik — wordmark</title>
  <desc>Sigillum (codex with mystic glyph) followed by the lowercase "akashik" wordmark set in Fraunces serif. For headers, social bios, signatures.</desc>
  <defs>
    <style>
      .wm-text {
        font-family: 'Fraunces','EB Garamond','Iowan Old Style','Palatino Linotype',Georgia,serif;
        font-weight: 500;
        font-size: 32px;
        letter-spacing: -0.012em;
        fill: #1e1a14;
      }
    </style>
  </defs>

  <!-- Sigillum — same composition as logo-mark.svg, parked at the left -->
  <g transform="translate(0,0)">
    <rect width="64" height="64" rx="14" fill="#f3ecd8"/>

    <g stroke="#9c6f1c" stroke-width="1.2" stroke-linecap="round" opacity="0.7">
      <line x1="32" y1="1.4" x2="32" y2="3.6"/>
      <line x1="62.6" y1="32" x2="60.4" y2="32"/>
      <line x1="32" y1="62.6" x2="32" y2="60.4"/>
      <line x1="1.4" y1="32" x2="3.6" y2="32"/>
    </g>

    <path d="M 50 11 L 53 13 L 53 53 L 50 53 Z" fill="#e8dfc4" stroke="#9c6f1c" stroke-width="0.4" opacity="0.85"/>
    <path d="M 13 9 L 53 9 L 50 11 L 11 11 Z" fill="#faf3df" stroke="#9c6f1c" stroke-width="0.4" opacity="0.85"/>
    <path d="M 8 12 L 11 11 L 11 53 L 8 52 Z" fill="#0a0a14"/>
    <path d="M 11 11 L 50 11 L 50 53 L 11 53 Z" fill="#1e1a14"/>

    <g stroke="#9c6f1c" stroke-width="0.5" opacity="0.85">
      <line x1="8" y1="22" x2="11" y2="22"/>
      <line x1="8" y1="32" x2="11" y2="32"/>
      <line x1="8" y1="42" x2="11" y2="42"/>
    </g>

    <rect x="15.5" y="15.5" width="30" height="33" rx="2" fill="none"
          stroke="#9c6f1c" stroke-width="0.6" stroke-dasharray="2 1.4" opacity="0.7"/>

    <g stroke="#9c6f1c" stroke-width="0.55" fill="none" opacity="0.85">
      <path d="M 15.5 18.5 L 15.5 15.5 L 18.5 15.5"/>
      <path d="M 42.5 15.5 L 45.5 15.5 L 45.5 18.5"/>
      <path d="M 15.5 45.5 L 15.5 48.5 L 18.5 48.5"/>
      <path d="M 42.5 48.5 L 45.5 48.5 L 45.5 45.5"/>
    </g>

    <!-- Mystic sigil -->
    <circle cx="30.5" cy="20.4" r="1.2" fill="#9c6f1c"/>
    <path d="M 27.6 23.3 Q 30.5 21.6 33.4 23.3" fill="none"
          stroke="#9c6f1c" stroke-width="1.1" stroke-linecap="round"/>
    <path d="M 24.6 26.5 L 36.4 26.5" stroke="#9c6f1c"
          stroke-width="1.2" stroke-linecap="round"/>
    <path d="M 23.8 29 Q 36 29 36 33.5 Q 36 36 31 36 Q 26 36 26 38.4 Q 26 41 31 41 Q 36 41 36 43.6 Q 36 46.3 30 46.6"
          fill="none" stroke="#9c6f1c" stroke-width="1.7" stroke-linecap="round"/>
    <path d="M 36 34.5 Q 40 35.8 40.6 39 Q 41 41.8 38.6 42"
          fill="none" stroke="#9c6f1c" stroke-width="1.2" stroke-linecap="round"/>
  </g>

  <text x="80" y="43" class="wm-text">akashik</text>
</svg>
